<svg width="32" height="32" viewBox="0 0 32 32" fill="none" xmlns="http://www.w3.org/2000/svg">
<path d="M14.571 4.62231C15.0327 4.62231 15.4523 4.72748 15.8299 4.93779C15.5729 5.06677 15.3273 5.21058 15.0943 5.37026C13.5534 6.4263 12.718 8.07048 12.718 10.2062C12.718 12.3357 13.555 13.9754 15.0955 15.0284C15.5963 15.3708 16.1556 15.6402 16.7598 15.8465C16.4101 15.9254 16.0757 16.0213 15.762 16.1377C15.0491 16.4022 14.3652 16.7993 13.8574 17.4118C13.3325 18.0449 13.0657 18.8246 13.0657 19.71C13.0657 20.4761 13.2399 21.198 13.6857 21.8133C13.7271 21.8704 13.7701 21.9256 13.8145 21.9789H12.718V23.1609C12.718 24.1732 13.0078 25.053 13.5782 25.767C14.0889 26.4063 14.7678 26.8418 15.4934 27.1433C15.1548 27.2997 14.7967 27.3779 14.4191 27.3779C13.609 27.3779 12.9508 26.9986 12.4445 26.2401C12.3939 26.139 12.3179 25.9367 12.2167 25.6333C12.0142 25.1276 11.7863 24.7989 11.5332 24.6472H11.4572C11.2041 24.6472 10.7231 24.9001 10.0143 25.4057C9.55862 25.8103 9.02701 26.0125 8.41946 26.0125C7.66001 26.0125 6.90057 25.7091 6.14112 25.1023C5.48293 24.5461 4.97663 23.914 4.62222 23.206V22.9026C4.62222 22.7004 4.67285 22.4728 4.77411 22.2199C5.02726 21.7648 5.73608 20.9557 6.90056 19.7927C7.91315 18.8319 8.57134 18.1492 8.87512 17.7447C9.17889 17.3907 9.33078 17.0367 9.33078 16.6828C9.33078 16.2277 9.07764 15.722 8.57134 15.1657C8.26757 14.8118 7.73596 14.2808 6.97651 13.5728C6.16644 12.8649 5.63481 12.3339 5.38166 11.9799C4.87537 11.4237 4.62223 10.8927 4.62222 10.3871V10.1595C4.926 9.45155 5.45761 8.81944 6.21705 8.2632C6.9765 7.65638 7.68532 7.35297 8.3435 7.35297H8.57134C8.97638 7.40354 9.5333 7.68168 10.2421 8.18736C10.4953 8.38963 10.6725 8.51604 10.7737 8.56662C11.0269 8.71831 11.2294 8.79416 11.3813 8.79417C11.6344 8.79417 11.8116 8.61717 11.9129 8.2632C12.0142 8.06093 12.0901 7.70696 12.1407 7.20129C12.242 6.5439 12.3433 6.11407 12.4445 5.9118C12.7989 5.05214 13.5077 4.62231 14.571 4.62231Z" fill="#3B73B9"/>
<path d="M16.734 23.1874C16.734 23.1866 16.734 23.1859 16.734 23.1852L16.7338 23.1609C16.7338 23.1698 16.7338 23.1786 16.734 23.1874Z" fill="#EAEAEA"/>
<path d="M17.909 18.984C17.9072 18.9843 17.9055 18.9847 17.9037 18.985C17.9055 18.9847 17.9072 18.9843 17.909 18.9839V18.984Z" fill="#EAEAEA"/>
<path d="M16.9645 9.01388C16.9638 9.01541 16.9631 9.01695 16.9624 9.01849C16.968 9.00625 16.9737 8.99409 16.9795 8.98203C16.9744 8.99258 16.9694 9.00319 16.9645 9.01388Z" fill="#EAEAEA"/>
<path d="M13.9031 10.345C13.9031 6.76199 16.6179 5.30897 20.657 5.30897C24.2988 5.30897 26.8646 6.49781 27.3281 9.35432H24.4312C24.0505 8.09943 22.7096 7.67013 20.657 7.67013C18.2236 7.67013 16.7338 8.31408 16.7338 10.345C16.7338 12.3594 18.2236 13.0034 20.657 13.0034C22.7096 13.0034 24.0505 12.5741 24.4312 11.3192H27.3281C26.8646 14.1757 24.2988 15.3646 20.657 15.3646C16.6179 15.3646 13.9031 13.9115 13.9031 10.345Z" fill="#EAEAEA"/>
<path d="M13.9031 23.3068H16.7338C16.7338 24.347 17.8098 24.7433 20.9715 24.7433C24.0339 24.7433 24.5305 24.5452 24.5305 23.7856C24.5305 23.0426 24.067 22.9931 20.6404 22.7784C16.353 22.5307 14.2507 22.2005 14.2507 19.8559C14.2507 17.3131 17.2304 16.8342 20.7067 16.8342C24.3816 16.8342 27.0467 17.3131 27.0467 19.988H24.1995C24.1995 19.1789 23.1732 18.9807 20.5411 18.9807C17.8594 18.9807 17.098 19.1789 17.098 19.7403C17.098 20.3512 17.6111 20.4503 20.9715 20.698C24.7789 20.9787 27.3778 21.0777 27.3778 23.6701C27.3778 26.411 24.8947 26.8898 21.137 26.8898C17.3794 26.8898 13.9031 26.411 13.9031 23.3068Z" fill="#EAEAEA"/>
</svg>
