<svg width="402" height="274" viewBox="0 0 402 274" fill="none" xmlns="http://www.w3.org/2000/svg">
<g opacity="0.5" filter="url(#filter0_f_95_260)">
<path d="M344.422 40.4405L347.274 39.0675C368.192 28.9992 396.939 32.32 433.515 49.03C440.795 51.0608 446.203 55.0996 449.738 61.1463C452.264 65.4654 452.888 70.6998 451.61 76.8495C451.402 86.9122 445.221 107.598 433.068 138.907C424.153 165.337 419.087 182.719 417.868 191.054C417.096 198.068 418.225 204.166 421.255 209.349C425.296 216.259 435.577 222.38 452.097 227.712C458.931 231.064 473.49 235.126 495.774 239.897C517.108 245.126 532.395 249.39 541.636 252.691C557.205 258.481 567.515 265.694 572.566 274.333C576.102 280.379 576.785 287.799 574.616 296.592C566.385 330.441 552.761 351.942 533.744 361.095C530.892 362.468 528.262 363.18 525.856 363.232C521.101 365.52 510.747 365.523 494.791 363.24C478.835 360.958 468.48 360.961 463.726 363.249C458.972 365.537 456.684 369.959 456.862 376.515C459.625 389.575 458.526 402.281 453.563 414.632C448.096 426.119 439.657 434.608 428.247 440.1C413.034 447.423 396.885 446.894 379.801 438.513C377.84 437.243 374.393 434.474 369.461 430.206C360.607 423.399 353.045 419.844 346.775 419.54L345.349 420.227C340.595 422.515 334.088 431.182 325.827 446.227C321.311 457.257 313.347 465.517 301.938 471.009C287.675 477.874 270.382 479.556 250.059 476.055C232.142 472.502 216.32 466.281 202.593 457.391L199.563 452.208C197.542 448.753 196.22 444.408 195.596 439.174C195.805 429.111 201.034 408.883 211.286 378.489C220.706 352.923 226.247 335.312 227.912 325.656C230.081 316.863 229.398 309.443 225.862 303.397C221.316 295.622 211.511 289.272 196.447 284.347C187.206 281.046 171.919 276.781 150.585 271.553C128.301 266.782 113.014 262.517 104.724 258.758C89.6596 253.833 79.602 247.051 74.551 238.413L72.278 234.526C70.9116 219.686 74.5815 204.083 83.2877 187.716C91.4888 170.486 101.77 158.896 114.13 152.946L118.409 150.887C126.521 148.089 139.758 147.806 158.12 150.037C164.895 151.204 169.485 151.762 171.892 151.711C178.161 152.014 182.722 151.479 185.575 150.106C190.329 147.818 191.889 143.192 190.255 136.23C190.136 131.86 188.027 125.127 183.927 116.031C179.262 103.886 176.87 95.628 176.751 91.2574C174.821 73.3688 183.839 59.6192 203.806 50.0084C213.314 45.4319 223.134 43.4726 233.266 44.1304C243.398 44.7883 252.163 48.3179 259.562 54.7193C263.484 57.2593 268.698 63.0515 275.205 72.0959C285.248 87.187 294.355 94.4265 302.526 93.8143L303.952 93.1279C307.755 91.2972 312.866 84.4095 319.284 72.4648C327.99 56.098 336.37 45.4232 344.422 40.4405Z" fill="#6B95CF"/>
</g>
<defs>
<filter id="filter0_f_95_260" x="0" y="-38.6108" width="647.853" height="588.439" filterUnits="userSpaceOnUse" color-interpolation-filters="sRGB">
<feFlood flood-opacity="0" result="BackgroundImageFix"/>
<feBlend mode="normal" in="SourceGraphic" in2="BackgroundImageFix" result="shape"/>
<feGaussianBlur stdDeviation="36" result="effect1_foregroundBlur_95_260"/>
</filter>
</defs>
</svg>
