<svg width="26" height="26" viewBox="0 0 26 26" fill="none" xmlns="http://www.w3.org/2000/svg">
<path d="M17.5825 21.3613C18.4098 21.3182 19.0452 20.6126 19.0016 19.7853C18.958 18.958 18.252 18.3224 17.4247 18.3655C16.5974 18.4086 15.9621 19.1142 16.0056 19.9415C16.0492 20.7688 16.7552 21.4045 17.5825 21.3613Z" stroke="#BDBDBD" stroke-width="1.5" stroke-linecap="round" stroke-linejoin="round"/>
<path d="M9.59337 21.7778C10.4207 21.7347 11.056 21.0291 11.0124 20.2018C10.9688 19.3745 10.2628 18.7389 9.43553 18.782C8.60822 18.8251 7.9729 19.5307 8.01648 20.358C8.06007 21.1853 8.76607 21.821 9.59337 21.7778Z" stroke="#BDBDBD" stroke-width="1.5" stroke-linecap="round" stroke-linejoin="round"/>
<path d="M3.98816 6.44884L19.1825 5.65676C20.5583 5.58504 21.6188 6.80205 21.3092 8.09719L19.9516 13.7756C19.7432 14.647 18.9611 15.2813 18.0354 15.3296L8.88986 15.8064C7.96417 15.8546 7.11961 15.3051 6.82083 14.4601L3.98816 6.44884ZM3.98816 6.44884L3.15378 4.08908" stroke="#BDBDBD" stroke-width="1.5" stroke-linecap="round" stroke-linejoin="round"/>
</svg>
