<svg width="626" height="642" viewBox="0 0 626 642" fill="none" xmlns="http://www.w3.org/2000/svg">
<g filter="url(#filter0_f_148_96)">
<path d="M547.395 359.348L548.691 362.306C558.197 383.993 552.402 412.387 531.307 447.487C528.532 454.579 523.689 459.64 516.78 462.668C511.844 464.832 506.044 465.023 499.38 463.243C488.336 462.208 466.061 454.344 432.555 439.65C404.171 428.587 385.444 422.105 376.373 420.205C368.722 418.857 361.935 419.482 356.013 422.078C348.116 425.539 340.621 435.287 333.528 451.323C329.334 457.862 323.783 472.047 316.877 493.877C309.538 514.721 303.71 529.615 299.393 538.558C291.868 553.608 283.17 563.297 273.299 567.623C266.389 570.652 258.183 570.723 248.681 567.837C212.091 556.845 189.475 541.491 180.833 521.775C179.537 518.818 178.95 516.137 179.073 513.732C176.913 508.803 177.682 498.477 181.382 482.754C185.081 467.03 185.85 456.704 183.69 451.775C181.529 446.846 176.84 444.2 169.621 443.839C155.06 445.52 141.177 443.379 127.972 437.415C115.754 431.018 107.053 421.905 101.868 410.075C94.9547 394.302 96.7411 378.242 107.227 361.894C108.769 360.043 112.07 356.834 117.128 352.266C125.271 343.996 129.743 336.748 130.544 330.521L129.896 329.042C127.736 324.113 118.695 316.911 102.775 307.437C90.9893 302.026 82.504 293.405 77.3191 281.576C70.8379 266.789 70.2795 249.406 75.6438 229.427C80.8852 211.852 88.9035 196.586 99.6987 183.628L105.621 181.032C109.57 179.302 114.444 178.34 120.244 178.149C131.288 179.184 153.131 186.063 185.773 198.785C213.17 210.281 232.113 217.255 242.603 219.709C252.105 222.595 260.311 222.524 267.221 219.495C276.105 215.601 283.816 206.346 290.353 191.728C294.671 182.785 300.499 167.891 307.837 147.047C314.744 125.217 320.572 110.323 325.321 102.365C331.859 87.7482 340.063 78.2763 349.935 73.9498L354.377 72.0028C370.789 71.8604 387.665 76.8032 405.004 86.831C423.331 96.4262 435.303 107.631 440.92 120.447L442.864 124.883C445.334 133.202 444.657 146.426 440.835 164.553C439.047 171.213 438.091 175.745 437.968 178.149C437.167 184.376 437.415 188.968 438.711 191.926C440.872 196.855 445.839 198.791 453.613 197.734C458.426 197.975 465.984 196.425 476.287 193.084C489.984 189.431 499.238 187.725 504.051 187.966C523.857 187.512 538.296 197.635 547.37 218.337C551.691 228.195 553.112 238.149 551.633 248.199C550.154 258.249 545.62 266.699 538.032 273.55C534.948 277.253 528.193 281.976 517.766 287.721C500.43 296.495 491.794 304.981 491.857 313.18L492.505 314.658C494.233 318.602 501.422 324.264 514.072 331.647C531.412 341.675 542.519 350.909 547.395 359.348Z" fill="url(#paint0_linear_148_96)"/>
</g>
<defs>
<filter id="filter0_f_148_96" x="0" y="0" width="625.121" height="641.949" filterUnits="userSpaceOnUse" color-interpolation-filters="sRGB">
<feFlood flood-opacity="0" result="BackgroundImageFix"/>
<feBlend mode="normal" in="SourceGraphic" in2="BackgroundImageFix" result="shape"/>
<feGaussianBlur stdDeviation="36" result="effect1_foregroundBlur_148_96"/>
</filter>
<linearGradient id="paint0_linear_148_96" x1="240.364" y1="121.975" x2="410.17" y2="509.395" gradientUnits="userSpaceOnUse">
<stop stop-color="#1F3E66"/>
<stop offset="0.35" stop-color="#2A4F85"/>
<stop offset="0.7" stop-color="#3B73B9"/>
<stop offset="1" stop-color="#5E8AC8"/>
</linearGradient>
</defs>
</svg>
