<svg width="648" height="634" viewBox="0 0 648 634" fill="none" xmlns="http://www.w3.org/2000/svg">
<g opacity="0.5" filter="url(#filter0_f_148_97)">
<path d="M344.422 79.7719L347.274 78.2587C368.192 67.1614 396.939 70.8216 433.516 89.2392C440.795 91.4776 446.203 95.929 449.738 102.594C452.264 107.354 452.888 113.123 451.61 119.902C451.402 130.993 445.221 153.792 433.068 188.301C424.153 217.431 419.087 236.59 417.868 245.777C417.096 253.507 418.225 260.228 421.255 265.941C425.296 273.558 435.577 280.304 452.097 286.181C458.931 289.876 473.49 294.352 495.774 299.611C517.108 305.374 532.395 310.074 541.636 313.713C557.205 320.093 567.515 328.044 572.566 337.565C576.102 344.23 576.785 352.408 574.616 362.099C566.385 399.407 552.761 423.106 533.745 433.194C530.892 434.707 528.262 435.492 525.856 435.549C521.102 438.071 510.747 438.074 494.791 435.558C478.835 433.043 468.48 433.046 463.726 435.568C458.972 438.09 456.684 442.964 456.862 450.19C459.625 464.585 458.526 478.589 453.563 492.202C448.096 504.863 439.657 514.22 428.247 520.273C413.034 528.344 396.885 527.76 379.801 518.523C377.84 517.124 374.393 514.072 369.461 509.368C360.607 501.865 353.045 497.946 346.776 497.612L345.349 498.369C340.595 500.891 334.088 510.443 325.827 527.026C321.311 539.182 313.348 548.287 301.938 554.34C287.675 561.907 270.383 563.76 250.059 559.902C232.142 555.986 216.32 549.129 202.593 539.331L199.563 533.618C197.542 529.81 196.22 525.021 195.596 519.252C195.805 508.161 201.035 485.865 211.286 452.366C220.706 424.187 226.248 404.777 227.912 394.133C230.081 384.442 229.398 376.264 225.862 369.6C221.316 361.031 211.511 354.032 196.447 348.603C187.206 344.965 171.919 340.264 150.585 334.501C128.301 329.243 113.014 324.542 104.724 320.4C89.6597 314.971 79.6021 307.496 74.5511 297.975L72.2782 293.691C70.9117 277.335 74.5816 260.137 83.2878 242.098C91.4889 223.107 101.77 210.332 114.13 203.775L118.409 201.505C126.521 198.421 139.758 198.109 158.12 200.568C164.895 201.855 169.485 202.469 171.892 202.413C178.162 202.747 182.722 202.157 185.575 200.644C190.329 198.122 191.889 193.024 190.255 185.351C190.136 180.533 188.027 173.112 183.927 163.087C179.262 149.701 176.87 140.599 176.752 135.782C174.821 116.065 183.839 100.911 203.806 90.3176C213.314 85.2734 223.134 83.1139 233.266 83.8389C243.398 84.564 252.164 88.4544 259.562 95.5099C263.484 98.3095 268.698 104.694 275.205 114.662C285.248 131.295 294.355 139.275 302.526 138.6L303.952 137.843C307.755 135.826 312.866 128.234 319.284 115.069C327.99 97.0294 336.37 85.2638 344.422 79.7719Z" fill="url(#paint0_linear_148_97)"/>
</g>
<defs>
<filter id="filter0_f_148_97" x="0" y="0" width="647.853" height="633.856" filterUnits="userSpaceOnUse" color-interpolation-filters="sRGB">
<feFlood flood-opacity="0" result="BackgroundImageFix"/>
<feBlend mode="normal" in="SourceGraphic" in2="BackgroundImageFix" result="shape"/>
<feGaussianBlur stdDeviation="36" result="effect1_foregroundBlur_148_97"/>
</filter>
<linearGradient id="paint0_linear_148_97" x1="130.617" y1="403.657" x2="504.289" y2="205.42" gradientUnits="userSpaceOnUse">
<stop stop-color="#1F3E66"/>
<stop offset="0.35" stop-color="#2A4F85"/>
<stop offset="0.7" stop-color="#3B73B9"/>
<stop offset="1" stop-color="#5E8AC8"/>
</linearGradient>
</defs>
</svg>
