<svg width="26" height="26" viewBox="0 0 26 26" fill="none" xmlns="http://www.w3.org/2000/svg">
<path d="M9.51392 10.7671L10.0401 20.7532" stroke="#BDBDBD" stroke-width="1.5" stroke-linecap="round" stroke-linejoin="round"/>
<path d="M20.9721 9.66904L3.99512 10.554" stroke="#BDBDBD" stroke-width="1.5" stroke-linecap="round" stroke-linejoin="round"/>
<path d="M3.49048 10.4802C3.37261 8.24311 3.31368 7.12455 3.70404 6.2474C4.04742 5.47583 4.62631 4.83289 5.35776 4.41075C6.18931 3.93084 7.3079 3.87252 9.54507 3.7559L14.738 3.48519C16.9752 3.36857 18.0938 3.31026 18.9712 3.70108C19.743 4.04486 20.3863 4.62408 20.8089 5.35572C21.2893 6.18749 21.3482 7.30604 21.4661 9.54315L21.7397 14.7359C21.8575 16.9731 21.9165 18.0916 21.5261 18.9688C21.1827 19.7403 20.6038 20.3833 19.8724 20.8054C19.0408 21.2853 17.9222 21.3436 15.6851 21.4603L10.4921 21.731C8.25495 21.8476 7.13637 21.9059 6.25894 21.5151C5.48714 21.1713 4.84385 20.5921 4.42128 19.8604C3.94087 19.0287 3.88194 17.9101 3.76407 15.673L3.49048 10.4802Z" stroke="#BDBDBD" stroke-width="1.5" stroke-linecap="round" stroke-linejoin="round"/>
</svg>
