<svg width="24" height="24" viewBox="0 0 24 24" fill="none" xmlns="http://www.w3.org/2000/svg">
<path d="M21 3H14.25M21 3V9.75M21 3L12.75 11.25" stroke="#868686" stroke-width="1.5" stroke-linecap="round" stroke-linejoin="round"/>
<path d="M9.4 3C7.15979 3 6.03968 3 5.18404 3.43597C4.43139 3.81947 3.81947 4.43139 3.43597 5.18404C3 6.03968 3 7.15979 3 9.4V14.6C3 16.8402 3 17.9603 3.43597 18.816C3.81947 19.5686 4.43139 20.1805 5.18404 20.564C6.03968 21 7.15979 21 9.4 21H14.6C16.8402 21 17.9603 21 18.816 20.564C19.5686 20.1805 20.1805 19.5686 20.564 18.816C21 17.9603 21 16.8402 21 14.6V13.5" stroke="#868686" stroke-width="1.5" stroke-linecap="round" stroke-linejoin="round"/>
</svg>
