<svg width="112" height="32" viewBox="0 0 112 32" fill="none" xmlns="http://www.w3.org/2000/svg">
<path d="M12.746 26.2844H16.6616C16.6616 27.7498 18.15 28.3081 22.5236 28.3081C26.7597 28.3081 27.4467 28.0289 27.4467 26.959C27.4467 25.9123 26.8055 25.8425 22.0656 25.5401C16.1349 25.1912 13.2268 24.726 13.2268 21.4232C13.2268 17.8411 17.3485 17.1666 22.1572 17.1666C27.2406 17.1666 30.9272 17.8411 30.9272 21.6092H26.9887C26.9887 20.4695 25.569 20.1904 21.9282 20.1904C18.2187 20.1904 17.1653 20.4695 17.1653 21.2603C17.1653 22.1209 17.8752 22.2605 22.5236 22.6094C27.7902 23.0048 31.3852 23.1444 31.3852 26.7962C31.3852 30.6573 27.9505 31.3318 22.7525 31.3318C17.5546 31.3318 12.746 30.6573 12.746 26.2844Z" fill="#EAEAEA"/>
<path d="M45.6521 20.7254H39.2635V24.6795C39.2635 27.3311 39.7672 28.0057 42.1487 28.0057C43.3852 28.0057 44.0721 28.0057 45.6521 27.7731V30.9829C44.3469 31.2155 42.8585 31.3318 41.0495 31.3318C37.569 31.3318 35.325 30.006 35.325 26.9822V20.7254H31.7757V17.3992H35.325V14.5615L39.2635 13.4218V17.3992H45.6521V20.7254Z" fill="#EAEAEA"/>
<path d="M61.9817 17.3992H65.8973V31.0992H61.9817V28.7035C60.0582 30.2386 57.402 31.3318 54.1275 31.3318C50.5325 31.3318 47.1664 30.0293 47.1206 24.9819L47.1664 17.3992H51.1049V23.47C51.1049 26.3775 52.0667 27.8894 55.2953 27.8894C57.9286 27.8894 60.768 26.517 61.9817 25.0749V17.3992Z" fill="#EAEAEA"/>
<path d="M82.1673 12.4914H86.0828V31.0992H82.1673V28.9593C80.7018 30.5177 78.3432 31.3318 75.4351 31.3318C71.1074 31.3318 67.3978 29.4943 67.3978 24.2608C67.3978 19.0274 71.1074 17.1666 75.4351 17.1666C78.3432 17.1666 80.7018 17.9807 82.1673 19.5391V12.4914ZM76.7403 28.0057C80.2438 28.0057 82.1673 26.959 82.1673 24.2608C82.1673 21.5394 80.2438 20.4928 76.7403 20.4928C73.2369 20.4928 71.3363 21.5394 71.3363 24.2608C71.3363 26.959 73.2369 28.0057 76.7403 28.0057Z" fill="#EAEAEA"/>
<path d="M87.9088 12.4914H91.8244V15.9571H87.9088V12.4914ZM87.9088 17.3992H91.8244V31.0992H87.9088V17.3992Z" fill="#3B73B9"/>
<path d="M102.657 31.3318C97.0703 31.3318 93.315 29.285 93.315 24.2608C93.315 19.2135 97.0703 17.1666 102.657 17.1666C108.222 17.1666 112 19.2135 112 24.2608C112 29.285 108.222 31.3318 102.657 31.3318ZM102.657 28.0057C106.275 28.0057 108.062 27.0985 108.062 24.2608C108.062 21.3999 106.275 20.4928 102.657 20.4928C99.0167 20.4928 97.2306 21.3999 97.2306 24.2608C97.2306 27.0985 99.0167 28.0057 102.657 28.0057Z" fill="#EAEAEA"/>
<path d="M12.746 26.2787H16.6616C16.6616 27.744 18.15 28.3023 22.5236 28.3023C26.7597 28.3023 27.4467 28.0231 27.4467 26.9532C27.4467 25.9065 26.8055 25.8367 22.0656 25.5343C16.1349 25.1854 13.2268 24.7203 13.2268 21.4174C13.2268 17.8354 17.3485 17.1608 22.1572 17.1608C27.2406 17.1608 30.9272 17.8354 30.9272 21.6034H26.9887C26.9887 20.4637 25.569 20.1846 21.9282 20.1846C18.2187 20.1846 17.1653 20.4637 17.1653 21.2545C17.1653 22.1152 17.8752 22.2547 22.5236 22.6036C27.7902 22.999 31.3852 23.1386 31.3852 26.7904C31.3852 30.6515 27.9505 31.326 22.7525 31.326C17.5546 31.326 12.746 30.6515 12.746 26.2787Z" fill="#EAEAEA"/>
<path d="M45.6521 20.7196H39.2635V24.6737C39.2635 27.3253 39.7672 27.9999 42.1487 27.9999C43.3852 27.9999 44.0721 27.9999 45.6521 27.7673V30.9771C44.3469 31.2097 42.8585 31.326 41.0495 31.326C37.569 31.326 35.325 30.0002 35.325 26.9765V20.7196H31.7757V17.3934H35.325V14.5557L39.2635 13.416V17.3934H45.6521V20.7196Z" fill="#EAEAEA"/>
<path d="M61.9817 17.3934H65.8973V31.0934H61.9817V28.6977C60.0582 30.2328 57.402 31.326 54.1275 31.326C50.5325 31.326 47.1664 30.0235 47.1206 24.9761L47.1664 17.3934H51.1049V23.4642C51.1049 26.3717 52.0667 27.8836 55.2953 27.8836C57.9286 27.8836 60.768 26.5113 61.9817 25.0691V17.3934Z" fill="#EAEAEA"/>
<path d="M82.1673 12.4856H86.0828V31.0934H82.1673V28.9535C80.7018 30.5119 78.3432 31.326 75.4351 31.326C71.1074 31.326 67.3978 29.4885 67.3978 24.2551C67.3978 19.0216 71.1074 17.1608 75.4351 17.1608C78.3432 17.1608 80.7018 17.9749 82.1673 19.5333V12.4856ZM76.7403 27.9999C80.2438 27.9999 82.1673 26.9532 82.1673 24.2551C82.1673 21.5337 80.2438 20.487 76.7403 20.487C73.2369 20.487 71.3363 21.5337 71.3363 24.2551C71.3363 26.9532 73.2369 27.9999 76.7403 27.9999Z" fill="#EAEAEA"/>
<path d="M87.9088 17.3934H91.8244V31.0934H87.9088V17.3934Z" fill="#EAEAEA"/>
<path d="M102.657 31.326C97.0703 31.326 93.315 29.2792 93.315 24.2551C93.315 19.2077 97.0703 17.1608 102.657 17.1608C108.222 17.1608 112 19.2077 112 24.2551C112 29.2792 108.222 31.326 102.657 31.326ZM102.657 27.9999C106.275 27.9999 108.062 27.0928 108.062 24.2551C108.062 21.3941 106.275 20.487 102.657 20.487C99.0167 20.487 97.2306 21.3941 97.2306 24.2551C97.2306 27.0928 99.0167 27.9999 102.657 27.9999Z" fill="#EAEAEA"/>
<path d="M22.0886 0.920329C27.1262 0.920329 30.6755 2.59504 31.3167 6.61897H27.3094C26.7827 4.85124 24.9279 4.24655 22.0886 4.24655C18.7225 4.24656 16.6617 5.15368 16.6617 8.01462C16.6618 10.8523 18.7225 11.7595 22.0886 11.7595C24.928 11.7595 26.7827 11.1547 27.3094 9.3869H31.3167C30.6755 13.4109 27.1262 15.0855 22.0886 15.0855C16.5014 15.0855 12.7461 13.0387 12.7461 8.01462C12.7461 2.96725 16.5014 0.920338 22.0886 0.920329Z" fill="#EAEAEA"/>
<path d="M41.9563 0.920329C47.5206 0.920329 51.2989 2.96724 51.2989 8.01462C51.2989 13.0387 47.5206 15.0855 41.9563 15.0855C41.5246 15.0855 41.1038 15.0732 40.6948 15.0483V11.716C41.0873 11.7454 41.5077 11.7595 41.9563 11.7595C45.5742 11.7595 47.3604 10.8523 47.3604 8.01462C47.3604 5.15367 45.5742 4.24655 41.9563 4.24655C38.3155 4.24656 36.5295 5.15368 36.5295 8.01462C36.5295 10.1375 37.5291 11.1797 39.557 11.5702L34.6305 12.9957C33.3407 11.8587 32.6139 10.2248 32.6138 8.01462C32.6138 2.96726 36.3692 0.920342 41.9563 0.920329Z" fill="#EAEAEA"/>
<path fill-rule="evenodd" clip-rule="evenodd" d="M77.1983 0.920329C82.8313 0.920343 86.037 2.75788 86.0828 7.94479V14.8529H82.1443V13.155C79.7629 14.3412 77.1295 15.0855 73.9467 15.0855C70.1685 15.0855 67.81 13.8527 67.81 10.7592C67.81 7.20048 71.6569 6.08405 75.9389 6.08405C78.2516 6.08405 80.3811 6.4562 82.1443 7.06095C82.1443 4.45586 78.847 4.24655 77.0151 4.24655C75.2519 4.24655 73.0995 4.40934 70.3288 5.24669L68.932 2.33922C71.6798 1.43208 74.3818 0.920329 77.1983 0.920329ZM76.4197 8.68908C73.4888 8.68908 71.7256 9.20083 71.7256 10.5964C71.7256 12.0385 73.0308 12.1548 75.0688 12.1548C77.1983 12.1548 80.1293 11.4803 82.1443 10.5964V9.52644C80.7704 9.08451 78.9156 8.68908 76.4197 8.68908Z" fill="#EAEAEA"/>
<path d="M63.7875 0.920329C65.3903 0.92033 66.5123 1.15295 67.4283 1.38555V4.71163C66.146 4.38601 65.1155 4.24655 63.9706 4.24655C61.7724 4.24656 59.2536 4.7582 56.8722 6.6422V14.8529H52.9566V1.15294H56.8722V3.47889C58.8873 1.64138 61.2687 0.920329 63.7875 0.920329Z" fill="#EAEAEA"/>
<path d="M13.738 0C14.3756 4.26603e-07 14.9551 0.147896 15.4764 0.443634C15.1216 0.625015 14.7824 0.827251 14.4607 1.05179C12.3328 2.53685 11.1794 4.84898 11.1794 7.85229C11.1794 10.8469 12.3351 13.1528 14.4623 14.6336C15.1539 15.115 15.9262 15.4939 16.7605 15.7841C16.2777 15.895 15.8159 16.0299 15.3827 16.1936C14.3982 16.5655 13.4538 17.1239 12.7526 17.9853C12.0279 18.8755 11.6594 19.9719 11.6594 21.217C11.6594 22.2944 11.9 23.3095 12.5155 24.1748C12.5727 24.2551 12.6321 24.3327 12.6935 24.4077H11.1794V26.0699C11.1794 27.4934 11.5794 28.7306 12.3671 29.7347C13.0724 30.6337 14.0098 31.2462 15.0118 31.6702C14.5443 31.89 14.0498 32 13.5283 32C12.4097 32 11.5008 31.4667 10.8016 30.4C10.7317 30.2578 10.6268 29.9733 10.487 29.5467C10.2074 28.8356 9.89278 28.3733 9.54321 28.16H9.43833C9.08876 28.16 8.42459 28.5156 7.4458 29.2267C6.81658 29.7956 6.08248 30.08 5.24353 30.08C4.19482 30.08 3.14612 29.6533 2.09742 28.8C1.18854 28.0178 0.489395 27.1289 0 26.1333V25.7067C0 25.4222 0.0699118 25.1022 0.209739 24.7467C0.559307 24.1067 1.5381 22.9689 3.14611 21.3333C4.54438 19.9822 5.45326 19.0222 5.87274 18.4533C6.29222 17.9556 6.50196 17.4578 6.50196 16.96C6.50196 16.32 6.1524 15.6089 5.45327 14.8267C5.03378 14.3289 4.2997 13.5822 3.25099 12.5867C2.13238 11.5911 1.39826 10.8445 1.04869 10.3467C0.349564 9.56446 4.47241e-06 8.81779 0 8.10668V7.78666C0.419482 6.79111 1.15357 5.90221 2.20227 5.11999C3.25097 4.26666 4.22977 3.83999 5.13864 3.83999H5.45327C6.01257 3.9111 6.78161 4.30223 7.76039 5.01334C8.10996 5.29778 8.35466 5.47556 8.49449 5.54667C8.84405 5.76 9.12371 5.86666 9.33345 5.86667C9.68301 5.86667 9.92772 5.61777 10.0675 5.11999C10.2074 4.83555 10.3123 4.33778 10.3822 3.62668C10.522 2.70224 10.6618 2.09778 10.8016 1.81334C11.291 0.604449 12.2698 0 13.738 0Z" fill="#3B73B9"/>
<path d="M16.7249 26.1071C16.7249 26.1061 16.7249 26.1051 16.7249 26.104L16.7246 26.0699C16.7246 26.0824 16.7247 26.0948 16.7249 26.1071Z" fill="#EAEAEA"/>
<path d="M17.0432 6.17564C17.0422 6.17779 17.0413 6.17996 17.0403 6.18212C17.048 6.1649 17.0559 6.14781 17.0639 6.13084C17.0569 6.14568 17.05 6.16061 17.0432 6.17564Z" fill="#EAEAEA"/>
<path d="M12.8158 8.04755C12.8158 3.00892 16.5646 0.965606 22.1421 0.965606C27.171 0.965606 30.7141 2.63741 31.3541 6.65438H27.3539C26.8281 4.8897 24.9766 4.28599 22.1421 4.28599C18.7819 4.28599 16.7246 5.19155 16.7246 8.04755C16.7246 10.8803 18.7819 11.7859 22.1421 11.7859C24.9766 11.7859 26.8281 11.1822 27.3539 9.4175H31.3541C30.7141 13.4345 27.171 15.1063 22.1421 15.1063C16.5646 15.1063 12.8158 13.063 12.8158 8.04755Z" fill="#EAEAEA"/>
<path d="M12.8158 26.275H16.7246C16.7246 27.7379 18.2104 28.2951 22.5764 28.2951C26.8053 28.2951 27.491 28.0165 27.491 26.9484C27.491 25.9035 26.851 25.8339 22.1192 25.532C16.1989 25.1837 13.2958 24.7193 13.2958 21.4222C13.2958 17.8464 17.4104 17.173 22.2107 17.173C27.2853 17.173 30.9655 17.8464 30.9655 21.6079H27.0338C27.0338 20.4702 25.6166 20.1915 21.9821 20.1915C18.279 20.1915 17.2275 20.4702 17.2275 21.2596C17.2275 22.1188 17.9361 22.2581 22.5764 22.6064C27.8339 23.0011 31.4227 23.1404 31.4227 26.7859C31.4227 30.6403 27.9939 31.3137 22.805 31.3137C17.6161 31.3137 12.8158 30.6403 12.8158 26.275Z" fill="#EAEAEA"/>
</svg>
