<svg width="26" height="26" viewBox="0 0 26 26" fill="none" xmlns="http://www.w3.org/2000/svg">
<path d="M8.02078 8.47131L11.1809 11.3167M3.26601 5.42572L6.36067 14.4342C7.28072 17.1125 9.53152 18.8747 12.3592 18.7273C12.7822 18.7053 13.2025 18.6322 13.6137 18.5142C14.0002 18.4033 14.4245 18.4704 14.7235 18.7396L17.3088 21.0674C17.7402 21.4559 18.4046 21.4212 18.7928 20.9901L21.597 17.8757C21.9852 17.4446 21.9502 16.7802 21.5188 16.3918L18.9374 14.0675C18.6392 13.799 18.5279 13.3853 18.5963 12.99C18.6688 12.5707 18.6967 12.1434 18.6741 11.7139C18.5251 8.88631 16.5373 6.83205 13.7775 6.19699L4.49486 4.06094C3.6914 3.87606 2.99815 4.64599 3.26601 5.42572Z" stroke="#BDBDBD" stroke-width="1.5" stroke-linecap="round" stroke-linejoin="round"/>
</svg>
