<svg width="26" height="26" viewBox="0 0 26 26" fill="none" xmlns="http://www.w3.org/2000/svg">
<path d="M12.8913 17.8508C15.7869 17.6999 18.0105 15.2303 17.858 12.3348C17.7054 9.43933 15.2344 7.21445 12.3389 7.36539C9.44331 7.51634 7.21966 9.98595 7.37222 12.8814C7.52477 15.7769 9.99576 18.0018 12.8913 17.8508Z" stroke="#BDBDBD" stroke-width="1.5" stroke-linecap="round" stroke-linejoin="round"/>
<path d="M12.694 14.106C13.5213 14.0629 14.1567 13.3573 14.1131 12.53C14.0695 11.7027 13.3635 11.067 12.5362 11.1102C11.7089 11.1533 11.0735 11.8589 11.1171 12.6862C11.1607 13.5135 11.8667 14.1491 12.694 14.106Z" stroke="#BDBDBD" stroke-width="1.5" stroke-linecap="round" stroke-linejoin="round"/>
<path d="M21.6029 12.1395C21.8644 17.1032 18.0525 21.3369 13.0886 21.5956C8.12481 21.8544 3.88883 18.0403 3.62731 13.0766C3.36578 8.11294 7.17775 3.87931 12.1416 3.62055C17.1054 3.36178 21.3414 7.17587 21.6029 12.1395Z" stroke="#BDBDBD" stroke-width="1.5" stroke-linecap="round" stroke-linejoin="round"/>
</svg>
