<svg width="1392" height="151" viewBox="0 0 1392 151" fill="none" xmlns="http://www.w3.org/2000/svg">
<g opacity="0.5">
<path d="M92.2113 150.891C27.6634 150.891 0 126.371 0 75.236C0 24.3102 27.6634 0 92.2113 0C156.55 0 184.423 24.5198 184.423 75.236C184.423 126.162 156.55 150.891 92.2113 150.891ZM92.2113 104.786C124.276 104.786 129.934 90.7443 129.934 75.236C129.934 59.9373 124.485 46.1056 92.2113 46.1056C59.9373 46.1056 54.4885 59.7278 54.4885 75.236C54.4885 90.9539 60.1469 104.786 92.2113 104.786Z" fill="#151518"/>
<path d="M352.79 66.8532C365.574 76.0743 374.795 89.4869 374.795 105.414C374.795 129.515 360.335 148.795 327.013 148.795H192.887V2.09571H320.726C354.047 2.09571 364.316 17.1848 364.316 39.3994C364.316 48.8301 359.915 58.4703 352.79 66.8532ZM247.376 37.7228V53.6502H297.673C303.122 53.6502 309.828 53.6502 309.828 45.6865C309.828 37.7228 303.122 37.7228 297.673 37.7228H247.376ZM308.151 108.977C313.6 108.977 320.307 108.977 320.307 101.223C320.307 93.4687 313.6 93.4687 308.151 93.4687H247.376V108.977H308.151Z" fill="#151518"/>
<path d="M554.699 58.2608C554.699 79.637 544.849 97.241 528.712 106.672L554.699 148.795H490.151L469.822 114.426H437.758V148.795H383.27V2.09571H498.534C531.855 2.09571 554.699 25.5677 554.699 58.2608ZM437.758 48.2014V68.3202H488.055C493.504 68.3202 500.21 68.3202 500.21 58.2608C500.21 48.2014 493.504 48.2014 488.055 48.2014H437.758Z" fill="#151518"/>
<path d="M617.498 2.09571V148.795H563.01V2.09571H617.498Z" fill="#151518"/>
<path d="M712.442 98.2889V68.9489H807.587V148.795H776.152L772.17 127.629C759.805 142.089 740.524 150.891 709.717 150.891C655.648 150.891 623.793 126.371 623.793 75.236C623.793 24.3102 655.648 0 716.005 0C774.685 0 805.282 20.538 807.587 60.5661H751.841C749.746 53.0215 739.057 46.1056 716.005 46.1056C683.731 46.1056 678.282 59.7278 678.282 77.3317C678.282 95.1453 683.94 111.073 716.005 111.073C736.962 111.073 749.746 108.139 751.841 98.2889H712.442Z" fill="#151518"/>
<path d="M956.479 148.795L946.42 122.39H883.968L873.908 148.795H813.971L874.747 2.09571H955.641L1016.42 148.795H956.479ZM898.219 84.6667H932.169L915.194 39.8185L898.219 84.6667Z" fill="#151518"/>
<path d="M1131.8 2.09571C1167.22 2.09571 1200.54 25.5677 1200.54 75.4456C1200.54 125.324 1167.22 148.795 1131.8 148.795H1022.82V2.09571H1131.8ZM1115.03 102.69C1126.77 102.69 1146.05 102.69 1146.05 75.4456C1146.05 48.2014 1126.77 48.2014 1115.03 48.2014H1077.31V102.69H1115.03Z" fill="#151518"/>
<path d="M1299.02 150.891C1234.47 150.891 1206.81 126.371 1206.81 75.236C1206.81 24.3102 1234.47 0 1299.02 0C1363.36 0 1391.23 24.5198 1391.23 75.236C1391.23 126.162 1363.36 150.891 1299.02 150.891ZM1299.02 104.786C1331.09 104.786 1336.74 90.7443 1336.74 75.236C1336.74 59.9373 1331.3 46.1056 1299.02 46.1056C1266.75 46.1056 1261.3 59.7278 1261.3 75.236C1261.3 90.9539 1266.96 104.786 1299.02 104.786Z" fill="#151518"/>
</g>
</svg>
