<svg width="32" height="32" viewBox="0 0 32 32" fill="none" xmlns="http://www.w3.org/2000/svg">
<g clip-path="url(#clip0_95_253)">
<path d="M9 13C9 11.9391 9.42143 10.9217 10.1716 10.1716C10.9217 9.42143 11.9391 9 13 9L15 13L13.46 15.3088C14.0709 16.7684 15.2316 17.9291 16.6912 18.54L19 17L23 19C23 20.0609 22.5786 21.0783 21.8284 21.8284C21.0783 22.5786 20.0609 23 19 23C16.3478 23 13.8043 21.9464 11.9289 20.0711C10.0536 18.1957 9 15.6522 9 13Z" stroke="white" stroke-opacity="0.5" stroke-width="2" stroke-linecap="round" stroke-linejoin="round"/>
<path d="M9.99121 26.3887C12.5119 27.8475 15.4771 28.3399 18.3339 27.774C21.1908 27.2081 23.7444 25.6225 25.5186 23.3129C27.2927 21.0032 28.1664 18.1272 27.9767 15.221C27.787 12.3148 26.5468 9.57679 24.4875 7.51742C22.4281 5.45805 19.6901 4.2179 16.7839 4.02819C13.8776 3.83847 11.0016 4.71215 8.69202 6.48632C6.3824 8.26049 4.79682 10.8141 4.2309 13.6709C3.66499 16.5278 4.15735 19.493 5.61621 22.0137L4.05246 26.6824C3.9937 26.8586 3.98517 27.0477 4.02783 27.2285C4.07049 27.4092 4.16266 27.5745 4.29399 27.7059C4.42533 27.8372 4.59064 27.9294 4.77141 27.972C4.95218 28.0147 5.14126 28.0062 5.31746 27.9474L9.99121 26.3887Z" stroke="white" stroke-opacity="0.5" stroke-width="2" stroke-linecap="round" stroke-linejoin="round"/>
</g>
<defs>
<clipPath id="clip0_95_253">
<rect width="32" height="32" fill="white"/>
</clipPath>
</defs>
</svg>
